<mxfile host="app.diagrams.net" modified="2023-12-08T08:26:13.665Z" agent="Mozilla/5.0 (Windows NT 10.0; Win64; x64) AppleWebKit/537.36 (KHTML, like Gecko) Chrome/120.0.0.0 Safari/537.36" etag="STQ1GzsTnVtCG5cxH0Wa" version="22.1.7" type="device">
  <diagram name="Page-1" id="k2DRydUil1bZcyDuSmNf">
    <mxGraphModel dx="1050" dy="557" grid="1" gridSize="10" guides="1" tooltips="1" connect="1" arrows="1" fold="1" page="1" pageScale="1" pageWidth="850" pageHeight="1100" math="0" shadow="0">
      <root>
        <mxCell id="0" />
        <mxCell id="1" parent="0" />
        <mxCell id="1FBSe1uWf9729bTgwICO-1" value="" style="triangle;whiteSpace=wrap;html=1;fillColor=#008a00;fontColor=#ffffff;strokeColor=#005700;" vertex="1" parent="1">
          <mxGeometry x="310" y="150" width="310" height="310" as="geometry" />
        </mxCell>
        <mxCell id="1FBSe1uWf9729bTgwICO-2" value="Actor" style="shape=umlActor;verticalLabelPosition=bottom;verticalAlign=top;html=1;outlineConnect=0;" vertex="1" parent="1">
          <mxGeometry x="430" y="450" width="30" height="60" as="geometry" />
        </mxCell>
        <mxCell id="1FBSe1uWf9729bTgwICO-3" value="Actor" style="shape=umlActor;verticalLabelPosition=bottom;verticalAlign=top;html=1;outlineConnect=0;" vertex="1" parent="1">
          <mxGeometry x="550" y="410" width="30" height="60" as="geometry" />
        </mxCell>
        <mxCell id="1FBSe1uWf9729bTgwICO-4" value="Actor" style="shape=umlActor;verticalLabelPosition=bottom;verticalAlign=top;html=1;outlineConnect=0;" vertex="1" parent="1">
          <mxGeometry x="170" y="370" width="30" height="60" as="geometry" />
        </mxCell>
        <mxCell id="1FBSe1uWf9729bTgwICO-5" value="Actor" style="shape=umlActor;verticalLabelPosition=bottom;verticalAlign=top;html=1;outlineConnect=0;" vertex="1" parent="1">
          <mxGeometry x="250" y="430" width="30" height="60" as="geometry" />
        </mxCell>
        <mxCell id="1FBSe1uWf9729bTgwICO-6" value="Actor" style="shape=umlActor;verticalLabelPosition=bottom;verticalAlign=top;html=1;outlineConnect=0;" vertex="1" parent="1">
          <mxGeometry x="650" y="340" width="30" height="60" as="geometry" />
        </mxCell>
        <mxCell id="1FBSe1uWf9729bTgwICO-7" value="Actor" style="shape=umlActor;verticalLabelPosition=bottom;verticalAlign=top;html=1;outlineConnect=0;" vertex="1" parent="1">
          <mxGeometry x="720" y="220" width="30" height="60" as="geometry" />
        </mxCell>
        <mxCell id="1FBSe1uWf9729bTgwICO-8" value="Actor" style="shape=umlActor;verticalLabelPosition=bottom;verticalAlign=top;html=1;outlineConnect=0;" vertex="1" parent="1">
          <mxGeometry x="395" y="90" width="30" height="60" as="geometry" />
        </mxCell>
        <mxCell id="1FBSe1uWf9729bTgwICO-9" value="Actor" style="shape=umlActor;verticalLabelPosition=bottom;verticalAlign=top;html=1;outlineConnect=0;" vertex="1" parent="1">
          <mxGeometry x="530" y="130" width="30" height="60" as="geometry" />
        </mxCell>
        <mxCell id="1FBSe1uWf9729bTgwICO-10" value="Actor" style="shape=umlActor;verticalLabelPosition=bottom;verticalAlign=top;html=1;outlineConnect=0;" vertex="1" parent="1">
          <mxGeometry x="140" y="230" width="30" height="60" as="geometry" />
        </mxCell>
        <mxCell id="1FBSe1uWf9729bTgwICO-12" value="Actor" style="shape=umlActor;verticalLabelPosition=bottom;verticalAlign=top;html=1;outlineConnect=0;" vertex="1" parent="1">
          <mxGeometry x="210" y="120" width="30" height="60" as="geometry" />
        </mxCell>
        <mxCell id="1FBSe1uWf9729bTgwICO-13" value="Actor" style="shape=umlActor;verticalLabelPosition=bottom;verticalAlign=top;html=1;outlineConnect=0;" vertex="1" parent="1">
          <mxGeometry x="410" y="260" width="30" height="60" as="geometry" />
        </mxCell>
        <mxCell id="1FBSe1uWf9729bTgwICO-14" value="&lt;b&gt;Enemies&lt;/b&gt;" style="text;html=1;strokeColor=none;fillColor=none;align=center;verticalAlign=middle;whiteSpace=wrap;rounded=0;" vertex="1" parent="1">
          <mxGeometry x="280" y="90" width="60" height="30" as="geometry" />
        </mxCell>
        <mxCell id="1FBSe1uWf9729bTgwICO-15" value="&lt;b&gt;Source of the Swap&lt;/b&gt;" style="text;html=1;strokeColor=none;fillColor=none;align=center;verticalAlign=middle;whiteSpace=wrap;rounded=0;" vertex="1" parent="1">
          <mxGeometry x="330" y="210" width="60" height="30" as="geometry" />
        </mxCell>
      </root>
    </mxGraphModel>
  </diagram>
</mxfile>
